<?xml version="1.0" encoding="utf-8"?>
<svg viewBox="0 0 500 500" xmlns="http://www.w3.org/2000/svg">
  <path fill="rgb(255,0,0)" stroke="rgb(255,0,0)" stroke-width="0" d="M 73.754 173.173 C 77.46 173.166 89.266 177.798 99.353 178.406 C 111.886 179.162 138.537 174.31 144.148 175.416 C 146.066 175.794 145.998 176.415 146.638 177.285 C 147.337 178.235 148.174 179.667 148.06 181.022 C 147.924 182.615 145.775 183.805 145.215 186.255 C 144.411 189.779 144.774 195.504 145.215 201.208 C 145.751 208.123 149.46 220.182 148.771 225.13 C 148.362 228.061 147.091 229.687 145.57 230.737 C 144.099 231.753 141.938 232.044 139.882 231.484 C 137.29 230.779 135.201 226.883 131.35 225.504 C 126.245 223.677 119.179 222.742 110.73 223.261 C 99.362 223.959 77.636 228.512 68.066 232.232 C 61.816 234.662 58.513 240.261 55.267 240.455 C 52.984 240.593 50.933 238.69 49.934 237.091 C 48.967 235.545 48.763 232.821 49.224 231.111 C 49.659 229.484 50.717 228.43 52.424 226.999 C 54.94 224.887 61.836 223.111 64.154 220.271 C 66.064 217.934 65.574 213.703 66.644 212.048 C 67.365 210.931 68.461 211.761 69.132 210.179 C 70.707 206.472 71.88 188.514 71.265 183.265 C 70.936 180.45 69.023 179.63 69.132 178.032 C 69.238 176.531 70.723 174.698 71.621 173.92 C 72.294 173.338 72.364 173.176 73.754 173.173 Z M 80.51 185.882 C 76.892 188.799 81.143 197.117 80.51 202.329 C 79.904 207.311 77.229 214.801 76.954 216.533 C 76.87 217.059 76.543 217.153 76.954 217.281 C 78.855 217.87 98.804 211.569 108.952 211.3 C 118.409 211.049 133.446 214.802 135.972 215.038 C 136.56 215.092 136.532 215.454 136.683 215.038 C 137.329 213.249 137.925 190.391 133.839 186.629 C 130.492 183.549 124.389 188.741 117.483 188.872 C 107.937 189.054 85.619 181.762 80.51 185.882 Z M 185.248 141.29 C 188.462 141.325 192.07 142.415 193.425 143.906 C 194.456 145.043 194.292 147.041 194.137 148.393 C 193.994 149.635 193.824 150.757 192.713 151.757 C 191.012 153.291 187.091 154.709 183.115 155.495 C 177.999 156.505 170.707 156.333 163.916 156.242 C 156.555 156.144 149.961 154.456 140.45 154.747 C 127.96 155.129 107.516 159.193 94.232 159.98 C 83.32 160.626 74.972 160.245 65.791 159.98 C 56.982 159.726 46.381 158.459 40.192 158.485 C 36.073 158.501 33.794 159.26 30.949 159.233 C 28.386 159.208 26.923 158.561 23.838 158.485 C 19.395 158.375 9.145 159.993 6.061 159.233 C 4.538 158.856 4.104 158.104 3.573 157.364 C 3.103 156.708 2.732 155.988 2.862 155.121 C 3.037 153.963 2.956 152.132 5.35 151.009 C 11.583 148.087 40.346 147.566 55.836 147.271 C 69.709 147.006 80.849 149.301 94.232 148.767 C 108.5 148.196 126.564 144.303 139.029 143.533 C 148.86 142.927 158.361 143.026 163.916 143.533 C 167.308 143.843 168.138 145.148 171.027 145.028 C 174.856 144.869 181.259 141.247 185.248 141.29 Z M 62.377 100.807 C 64.782 100.561 73.385 100.794 78.733 103.049 C 84.666 105.552 93.896 114.209 96.153 116.132 C 96.933 116.798 96.735 116.688 97.219 117.253 C 98.036 118.205 99.415 120.433 100.774 121.738 C 102.14 123.052 104.506 123.555 105.397 125.103 C 106.294 126.663 106.432 129.581 106.106 131.084 C 105.854 132.253 105.345 133.121 104.33 133.701 C 102.963 134.481 101.242 135.442 97.93 134.448 C 90.766 132.296 64.198 116.236 59.889 110.525 C 57.941 107.944 58.837 105.738 59.178 104.171 C 59.437 102.981 60.35 102.116 60.955 101.554 C 61.422 101.121 61.435 100.903 62.377 100.807 Z M 98.926 227.149 C 100.554 227.057 103.106 227.835 104.971 230.513 C 108.292 235.286 111.732 250.104 113.502 259.668 C 115.188 268.779 115.598 280.425 115.635 286.582 C 115.659 290.413 114.781 290.333 114.924 294.805 C 115.219 303.975 121.11 337.507 120.613 344.146 C 120.438 346.49 120.274 346.781 119.191 347.51 C 117.668 348.535 114.969 349.635 111.013 348.257 C 103.064 345.488 75.99 323.289 72.261 320.223 C 71.32 319.449 71.736 319.547 71.195 319.102 C 70.347 318.405 68.068 317.816 67.284 316.485 C 66.43 315.036 66.249 312.007 66.573 310.505 C 66.826 309.336 67.272 308.475 68.35 307.888 C 69.924 307.032 72.742 306.011 76.173 307.14 C 82.05 309.075 96.033 328.139 101.059 325.083 C 107.116 321.397 105.964 290.794 104.971 274.621 C 104.013 259.07 94.595 235.56 95.725 229.765 C 96.163 227.525 97.606 227.223 98.926 227.149 Z M 39.624 244.642 C 40.562 244.531 42.47 243.765 43.535 245.389 C 45.959 249.091 49.108 268.439 47.09 277.91 C 45.22 286.686 36.273 297.39 33.225 300.712 C 31.828 302.233 30.746 301.869 30.025 302.58 C 29.451 303.147 29.854 303.836 28.959 304.449 C 27.077 305.738 18.796 309.296 16.159 308.187 C 14.063 307.306 13.044 302.964 12.96 301.085 C 12.897 299.698 13.66 298.596 14.382 297.721 C 15.091 296.86 15.933 297.719 17.226 295.851 C 21.108 290.246 35.277 249.531 38.201 245.389 C 38.924 244.366 38.974 244.719 39.624 244.642 Z M 133.057 256.304 C 134.159 256.158 135.773 255.796 138.034 257.052 C 142.472 259.52 153.03 269.35 158.3 276.116 C 163.08 282.256 166.387 288.026 168.965 295.552 C 171.845 303.963 175.017 319.65 173.942 324.709 C 173.382 327.346 172.028 327.952 170.03 328.82 C 167.299 330.008 161.334 330.431 157.944 329.568 C 154.961 328.809 153.191 328.8 150.477 324.709 C 144.469 315.648 129.23 269.556 129.145 261.164 C 129.116 258.229 130.868 257.824 131.635 257.052 C 132.135 256.549 132.361 256.397 133.057 256.304 Z M 282.378 109.927 C 284.266 109.113 288.535 110.932 289.844 112.544 C 290.997 113.963 290.464 114.526 290.556 118.524 C 290.663 123.274 290.204 135.44 289.625 149.318 C 295.061 149.201 299.656 149.218 302.429 149.4 C 307.992 149.765 311.738 150.07 312.74 152.016 C 313.639 153.765 311.295 158.056 309.539 159.866 C 307.827 161.633 306.711 162.132 302.429 162.856 C 299.813 163.299 294.904 163.826 288.993 164.285 C 288.349 179.542 287.743 194.474 287.711 202.254 C 287.684 208.467 288.347 213.127 288.616 216.773 C 293.668 215.295 298.266 213.829 302.004 212.416 C 304.199 211.586 306.406 210.649 308.601 209.645 C 311.032 201.259 313.198 192.71 314.873 184.76 C 317.915 170.317 317.978 147.33 320.561 142.522 C 321.531 140.717 322.568 141.041 323.762 141.026 C 325.133 141.011 327.348 141.004 328.384 142.895 C 330.242 146.289 330.325 155.117 329.094 165.323 C 328.019 174.232 324.729 188.959 321.025 203.358 C 330.105 198.452 337.984 193.803 342.533 192.979 C 346.123 192.328 348.063 193.089 349.288 194.474 C 350.453 195.791 350.419 199.142 350 200.828 C 349.644 202.261 349.79 202.647 347.51 204.192 C 343.579 206.857 330.874 212.774 316.923 218.583 C 315.182 224.751 313.492 230.375 312.03 234.848 C 307.814 247.744 304.239 254.908 299.248 264.717 C 304.319 265.311 311.684 265.111 315.655 264.528 C 318.663 264.086 321.195 263.108 322.41 262.285 C 323.11 261.812 322.834 261.22 323.477 260.79 C 324.462 260.13 326.968 258.974 328.454 259.294 C 329.926 259.612 331.395 260.018 332.365 262.659 C 334.581 268.69 333.713 288.695 333.787 304.523 C 333.875 323.314 334.105 359.831 332.365 368.816 C 331.713 372.181 331.243 372.612 329.877 373.676 C 328.384 374.839 325.355 375.544 323.477 375.171 C 321.712 374.82 320.269 373.898 318.855 371.807 C 316.653 368.551 316.717 358.788 313.166 354.986 C 309.673 351.245 301.475 348.665 297.878 349.005 C 295.373 349.243 293.831 350.698 292.546 353.117 C 290.707 356.578 291.982 367.281 290.058 369.938 C 288.838 371.621 286.616 371.478 285.079 371.433 C 283.672 371.391 282.171 371.819 281.169 369.938 C 278.872 365.623 280.322 344.941 279.037 335.175 C 277.993 327.247 275.138 317.79 274.77 314.99 C 274.641 314.011 274.807 314.529 274.77 313.495 C 274.716 312.027 274.655 308.408 274.491 304.125 C 267.477 313.378 259.335 323.24 254.078 327.175 C 249.827 330.358 246.001 330.856 243.413 330.913 C 241.672 330.952 240.394 330.562 239.501 329.418 C 238.41 328.018 237.744 324.47 238.079 322.316 C 238.402 320.251 239.622 317.902 241.279 316.709 C 243.075 315.417 246.522 316.746 248.745 315.214 C 251.364 313.41 252.992 308.44 255.5 305.496 C 257.975 302.591 260.284 301.664 263.677 297.646 C 266.107 294.77 269.4 290.628 272.853 285.958 C 271.221 277.751 267.553 267.279 267.659 263.407 C 267.714 261.423 268.386 260.862 269.081 260.042 C 269.723 259.286 270.336 258.622 271.569 258.547 C 273.578 258.425 278.041 261.238 280.814 261.538 C 283.169 261.792 284.763 260.486 287.213 260.79 C 287.683 260.848 288.161 260.96 288.648 261.112 C 293.41 252.004 297.491 242.406 301.363 231.858 C 302.326 229.234 303.283 226.501 304.222 223.694 C 297.527 226.292 291.064 228.635 285.65 230.358 C 266.761 236.367 235.804 242.269 230.187 242.319 C 228.736 242.332 228.826 242.185 228.409 241.572 C 227.813 240.696 227.361 238.11 227.699 236.713 C 228.016 235.392 227.776 234.721 230.187 233.349 C 235.407 230.373 257.312 225.288 277.101 219.982 C 276.042 209.832 276.382 191.58 276.334 178.331 C 276.32 174.363 276.311 169.835 276.326 165.062 C 262.943 165.669 248.969 165.594 244.834 163.603 C 241.495 161.996 241.397 158.32 241.634 156.501 C 241.83 155.014 242.211 154.081 244.834 153.137 C 248.886 151.681 262.937 150.462 276.469 149.794 C 276.697 136.405 277.241 123.631 278.468 117.777 C 279.463 113.026 280.439 110.763 282.378 109.927 Z M 285.437 289.198 C 285.907 293.98 289.567 333.723 292.546 337.044 C 293.649 338.271 294.514 335.769 296.101 335.548 C 298.363 335.234 301.88 335.283 305.345 336.296 C 309.713 337.574 316.971 347.029 320.278 343.772 C 326.01 338.125 325.03 279.395 322.41 274.994 C 321.568 273.58 320.89 276.154 318.855 276.489 C 314.654 277.182 301.824 277.525 295.39 276.489 C 294.694 276.377 293.984 276.182 293.272 275.935 C 290.841 280.264 288.252 284.567 285.409 288.883 C 285.414 288.972 285.423 289.075 285.437 289.198 Z M 315.514 300.712 C 317.014 300.642 318.676 302.278 319.423 303.328 C 320.047 304.201 320.446 305.108 320.135 306.318 C 319.655 308.18 317.904 311.807 314.802 313.42 C 310.274 315.775 296.31 316.377 292.758 315.663 C 291.151 315.34 290.803 314.614 290.27 313.794 C 289.746 312.988 289.424 311.814 289.559 310.804 C 289.707 309.699 289.863 308.31 291.337 307.44 C 294.121 305.798 304.901 306.731 309.114 305.197 C 312.118 304.102 313.674 300.796 315.514 300.712 Z M 368.882 160.355 C 372.215 160.628 383.819 165.031 388.047 167.977 C 391.341 170.271 390.008 173 393.996 175.598 C 400.521 179.849 417.82 186.308 429.681 188.808 C 440.727 191.137 452.434 190.904 462.725 190.841 C 472.142 190.783 483.86 187.191 489.158 188.808 C 492.806 189.922 495.768 191.245 495.106 195.414 C 493.436 205.93 439.983 259.59 439.594 264.515 C 439.504 265.655 441.486 264.633 442.238 265.023 C 443.049 265.443 442.962 266.083 444.22 267.055 C 446.792 269.042 454.649 271.962 459.42 276.709 C 465.651 282.908 472.976 292.438 476.601 303.13 C 480.962 315.986 483.299 338.978 480.567 349.874 C 478.706 357.301 474.7 363.569 469.332 365.625 C 464.346 367.536 455.515 365.798 450.168 363.085 C 444.28 360.097 442.023 352.142 436.29 347.334 C 430.249 342.27 417.862 338.025 414.482 333.615 C 412.082 330.485 411.34 326.58 413.159 324.47 C 415.132 322.183 421.823 320.263 427.038 320.913 C 433.767 321.752 445.667 329.538 450.168 332.599 C 452.842 334.418 452.826 336.073 454.794 337.172 C 456.782 338.283 460.632 340.673 462.063 339.204 C 465.044 336.147 462.308 312.06 458.098 302.114 C 454.593 293.833 448.369 287.603 441.576 282.298 C 435.052 277.203 421.89 274.365 418.447 270.612 C 416.216 268.181 415.605 267.48 417.125 263.498 C 420.9 253.612 468.829 212.912 464.706 204.051 C 461.724 197.642 436.066 204.001 424.394 202.019 C 414.248 200.295 402.101 192.106 397.96 193.889 C 394.524 195.369 397.401 199.385 397.299 207.608 C 397.057 227.307 401.374 301.126 398.621 329.551 C 396.853 347.798 393.453 357.827 389.369 369.182 C 385.904 378.817 381.76 391.45 376.812 394.079 C 373.792 395.683 368.783 394.124 366.901 392.554 C 364.976 390.952 365.043 388.95 365.579 384.425 C 366.736 374.633 379.483 352.472 382.761 329.551 C 387.146 298.884 384.655 238.013 382.761 212.689 C 381.65 197.842 381.428 190.357 377.473 182.203 C 374.163 175.376 363.55 169.583 362.934 165.944 C 362.573 163.804 365.062 162.283 366.24 161.371 C 367.082 160.718 367.379 160.232 368.882 160.355 Z" style="fill: rgb(166, 209, 48); stroke: rgb(129, 151, 57); stroke-width: 2px;"/>
</svg>