<?xml version="1.0" encoding="UTF-8" standalone="no"?>
<svg
   xmlns:dc="http://purl.org/dc/elements/1.1/"
   xmlns:cc="http://creativecommons.org/ns#"
   xmlns:rdf="http://www.w3.org/1999/02/22-rdf-syntax-ns#"
   xmlns:svg="http://www.w3.org/2000/svg"
   xmlns="http://www.w3.org/2000/svg"
   xmlns:xlink="http://www.w3.org/1999/xlink"
   xmlns:sodipodi="http://sodipodi.sourceforge.net/DTD/sodipodi-0.dtd"
   xmlns:inkscape="http://www.inkscape.org/namespaces/inkscape"
   width="590"
   height="640"
   version="1.1"
   id="svg2"
   inkscape:version="0.48.4 r9939"
   sodipodi:docname="Map_of_Kyoto_Prefecture_Ja.svg">
  <metadata
     id="metadata190">
    <rdf:RDF>
      <cc:Work
         rdf:about="">
        <dc:format>image/svg+xml</dc:format>
        <dc:type
           rdf:resource="http://purl.org/dc/dcmitype/StillImage" />
      </cc:Work>
    </rdf:RDF>
  </metadata>
  <defs
     id="defs188" />
  <sodipodi:namedview
     pagecolor="#ffffff"
     bordercolor="#666666"
     borderopacity="1"
     objecttolerance="10"
     gridtolerance="10"
     guidetolerance="10"
     inkscape:pageopacity="0"
     inkscape:pageshadow="2"
     inkscape:window-width="1024"
     inkscape:window-height="706"
     id="namedview186"
     showgrid="false"
     inkscape:zoom="0.66481798"
     inkscape:cx="232.52783"
     inkscape:cy="295.78268"
     inkscape:window-x="-8"
     inkscape:window-y="-8"
     inkscape:window-maximized="1"
     inkscape:current-layer="g6" />
  <title
     id="title4">京都府区画図</title>
  <g
     id="g6">
    <defs
       id="defs8">
      <path
         d="m 577,-4 1,1 12,21 -1,7 1,11 -5,2 -2,2 5,2 1,5 -2,4 -1,5 -6,4 4,10 -5,3 h -5 l 4,1 -1,10 -7,2 -5,-1 -1,-6 -8,-6 3,-7 h 4 l 2,-1 -3,-18 -8,-10 1,-3 6,6 -2,-7 -6,-7 -10,8 -6,9 -7,-1 -2,3 -4,4 2,10 3,2 v -3 l -2,1 4,-4 3,14 -4,8 -1,10 2,-1 7,8 -1,4 -8,8 -5,-5 -2,-2 v 4 l -7,8 h -10 l -2,-7 -4,1 -2,6 -4,-3 -6,5 -6,-1 v -5 -2 l -7,-2 1,-5 h -6 l -5,-5 -4,2 2,4 2,-2 5,4 h -5 l 1,4 h 3 3 l 1,4 -6,4 3,3 4,-2 1,3 4,-1 2,12 -2,2 -6,8 -5,1 -4,-6 -2,1 -2,-3 v 2 l -4,1 3,4 8,10 3,6 -7,-1 h -2 v 6 l -3,-2 -1,-1 -3,4 -5,-7 3,-2 -5,-3 -5,-3 -3,-3 v 4 l 2,4 h -4 l -3,-5 -1,-8 -3,1 -2,-3 -7,1 h -5 l -6,7 -5,4 2,3 10,1 v 7 l 1,5 4,-1 4,-8 6,-1 h 6 l 1,3 h -6 l -3,16 -5,2 3,1 -7,4 -3,4 -4,-1 -5,-4 -8,3 -7,-2 -9,7 h -6 l -5,-4 -7,1 -11,-3 4,-3 7,3 9,1 7,-11 -2,-3 2,-4 -5,-1 12,-5 4,4 v -5 l -3,-1 3,-2 -4,-3 h 3 l -1,-2 -9,5 -10,6 v 4 l -8,3 -4,6 -13,7 h -4 l -2,-3 -5,4 -7,-1 -7,-6 1,-7 2,-7 -1,-5 2,-8 -4,1 -3,-1 -2,-1 2,6 -3,1 6,2 -3,2 1,6 -5,-2 -1,-3 -2,5 -4,-2 2,-5 -4,3 -3,-1 4,-6 5,-9 -12,5 -5,14 11,9 1,10 h -3 l -5,12 5,7 v 1 l 7,3 1,5 6,4 -2,3 3,4 4,-3 7,3 -1,10 3,5 -2,4 3,5 h 8 l 13,1 4,4 8,-2 2,2 2,-2 10,4 2,-1 27,12 8,-6 6,3 4,-5 9,3 4,-2 1,-1 4,-8 5,-3 v -5 l 7,2 3,-16 h 9 9 l 4,10 14,-5 1,-9 9,-7 v -4 l -1,-5 5,-21 8,-20 h 3 l 4,8 8,4 3,7 4,-3 7,1 9,-17 1,-4 v -1 h 9 l 1,-3 9,5 7,-8 9,6 h 1 v -5 l 1,-11 2,-14 3,3 5,1 V -4 z"
         id="18000"
         inkscape:connector-curvature="0" />
      <path
         d="m 604,514 -5,-4 -4,-2 -3,6 h -5 v 2 l 1,6 6,3 10,-1 z m 0,130 V 531 l -8,4 -1,7 -9,1 3,7 2,4 -4,4 -11,7 -7,-1 -4,3 -8,2 -1,3 7,5 -3,11 5,1 v 4 l 8,6 7,13 -7,5 v 2 l 9,2 5,12 -4,10 v 1 z m -35,0 -3,-2 1,2 z"
         id="24000"
         inkscape:connector-curvature="0" />
      <path
         d="m 604,524 -10,1 -6,-3 -1,-6 v -2 h 5 l 3,-6 4,2 5,4 z m 0,-393 -5,-1 -3,-3 -2,14 -1,11 v 5 h -1 l -9,-6 -7,8 -9,-5 -1,3 h -9 v 1 l -1,4 -9,17 -7,-1 -4,3 -3,-7 -8,-4 -4,-8 h -3 l -8,20 -5,21 1,5 v 4 l -9,7 -1,9 -14,5 -4,-10 h -9 -9 l -3,16 -7,-2 v 5 l -5,3 -4,8 -1,1 -2,6 8,3 6,11 7,3 9,22 h 5 l 8,-7 1,2 v 1 l -7,15 -5,9 2,8 -4,3 7,31 6,5 -4,8 1,6 -7,22 2,3 -4,8 2,9 -9,6 9,17 -1,2 -5,-3 -1,2 6,2 2,5 -5,5 h 11 v 4 h 3 l -2,7 5,6 7,7 1,8 -8,17 2,6 9,5 -1,5 6,2 5,-2 2,-5 13,-6 1,9 -1,7 2,8 7,-2 5,5 -1,5 14,-5 2,2 1,9 5,-2 4,4 1,2 -6,6 -2,7 5,2 8,-2 4,-3 7,1 11,-7 4,-4 -2,-4 -3,-7 9,-1 1,-7 8,-4 z"
         id="25000"
         inkscape:connector-curvature="0" />
      <path
         d="m 396,644 v -2 l 4,-9 -3,-12 v -1 l 15,-12 -4,-11 v -1 l 1,-3 5,-2 -1,-11 2,-4 4,3 4,-2 4,-5 4,-8 -7,-12 -4,-1 v -1 l -2,-3 -3,-6 -3,-4 -5,1 -2,-4 2,-3 -7,-11 2,-4 -8,-9 -8,-3 2,-5 -5,-6 -7,-3 -5,4 -8,-1 7,-7 2,-11 -2,-5 -10,2 -4,-5 -5,3 3,8 -7,1 -3,9 1,3 2,-5 v 5 l 2,-2 h 6 v 8 l -4,3 -14,1 -2,-6 -6,-2 -5,-8 -4,-2 -2,3 -7,-3 -2,-2 3,-4 -3,-4 4,-1 -3,-8 5,-4 -17,-7 -9,-4 -8,3 -5,-5 -3,2 -9,-1 -2,-6 2,-6 -5,-8 -10,-3 -9,9 h 2 l 3,5 6,1 1,4 -2,15 4,4 -5,2 -2,7 7,7 10,-1 4,8 8,-2 1,3 3,-1 v 4 l 9,-1 h 3 l 8,6 3,-2 -2,6 -11,-1 -5,3 -4,4 3,1 2,8 4,-2 h 3 l -4,10 -4,13 -5,1 3,9 -4,10 4,9 8,6 1,13 4,6 2,-2 2,16 -6,-1 -1,3 v 6 l -18,12 6,8 -5,6 h 4 v 4 l 4,-2 -5,4 v 1 z m -133,0 -1,-1 v 1 z m 13,0 1,-4 -4,-4 -7,6 8,2 z"
         id="27000"
         inkscape:connector-curvature="0" />
      <path
         d="m 170,644 v -3 l 4,-2 -4,2 v -4 l 2,1 2,-3 -1,-4 2,2 3,-4 -1,3 3,-2 1,3 1,-5 7,-1 -7,-2 7,-3 3,-2 -4,4 3,2 7,-1 -5,-4 h 12 l -2,-5 9,2 10,-5 v -3 l 6,1 1,2 8,-2 v -4 l 11,2 -2,2 9,7 -4,5 5,6 3,3 3,-2 4,-10 v 6 l 2,-6 5,2 -7,8 3,-1 -9,4 8,-1 7,-9 18,-12 1,-9 6,1 -2,-16 -2,2 -4,-6 -1,-13 -8,-6 -4,-9 4,-10 -3,-9 5,-1 4,-13 4,-10 h -3 l -4,2 -2,-8 -3,-1 4,-4 5,-3 11,1 2,-6 -3,2 -8,-6 h -3 l -9,1 v -4 l -3,1 -1,-3 -8,2 -4,-8 -10,1 -7,-7 2,-7 5,-2 -4,-4 2,-15 -1,-4 -6,-1 -3,-5 h -2 l 9,-9 10,3 -1,-5 14,-15 2,-4 -6,-5 -1,-14 v -3 l -21,-4 -1,-8 h -3 l -18,4 -7,-4 v -1 l 6,-5 -1,-7 -22,-2 -5,-1 -3,8 -8,2 -3,-3 -6,-4 v -10 l 5,-2 v -5 l -7,-7 -7,-3 -6,-3 6,-7 -2,-11 -7,-3 -9,2 -9,-3 -8,5 -10,11 -2,-5 -3,-11 -9,3 -12,-6 v -2 l -1,-5 -7,-4 -26,-10 -7,-4 3,-9 -5,-5 5,-31 3,-7 6,-3 5,2 8,6 6,3 1,5 14,-8 4,-6 4,1 5,-1 v -22 -1 l -2,-2 -1,-6 -4,-6 3,-10 -4,-2 6,-6 -1,-4 -3,-12 h -9 l -13,4 -7,3 -6,6 h -5 l -10,1 -4,-10 -1,-9 -12,-8 -10,-12 -6,-4 6,-6 3,-12 -1,-6 -2,-8 1,-7 -5,-1 -6,7 -3,2 -2,-3 3,-3 -5,-1 -6,-3 -7,-3 v -2 l -4,2 v 522 h 5 l 5,2 -3,-1 -2,7 8,7 4,-1 4,-8 -10,-5 10,5 1,4 5,1 6,6 18,16 7,1 10,8 z m 28,0 v -1 l -2,1 z m -6,0 v -2 l 4,-2 -1,-3 -5,2 5,-3 h -7 l 4,-3 -3,-2 -8,5 v 8 z m 12,-19 1,8 17,-2 -6,-6 5,1 v -3 z m -177,-3 -4,3 2,1 7,3 3,-4 -7,-6 -2,1 2,1 z m -12,0 6,2 4,-8 -6,-3 2,3 h -3 z m 190,-5 1,4 6,-1 z m 8,1 v 2 l 8,-1 -1,-5 z m 33,-5 2,6 2,-3 z m -24,2 1,3 h 5 v -6 l -5,-1 z m 7,-1 3,4 h 4 l -3,-2 h 3 v -4 z m 8,-2 v 3 h 7 l 1,-3 -5,-3 z"
         id="28000"
         inkscape:connector-curvature="0" />
      <path
         d="m 567,644 -1,-2 3,2 z m 16,0 v -1 l 4,-10 -5,-12 -9,-2 v -2 l 7,-5 -7,-13 h -4 l -8,18 -7,-1 -5,-5 -5,3 -3,-2 -1,-11 -7,-3 h -5 l -1,-4 -5,3 -1,3 -8,-2 2,-9 -3,1 -13,18 v 2 l -2,6 -6,-3 -6,4 -23,-5 -1,1 -6,-5 h -9 l -11,-2 1,-5 -10,-8 v -1 l -3,-15 -4,2 -4,-3 -2,4 1,11 -5,2 -1,3 v 1 l 4,11 -15,12 v 1 l 3,12 -4,9 v 2 z"
         id="29000"
         inkscape:connector-curvature="0" />
      <path
         d="m 418,486 -2,7 v 7 l -4,5 -1,5 6,9 7,4 v -2 l -1,-3 -3,-2 -1,-1 v -2 l -2,-3 3,-1 10,-6 4,4 3,-2 14,-5 3,-12 v 2 l 6,-1 3,5 h 6 v -5 l 8,3 v -12 l 1,-3 h 4 l 2,3 7,2 -7,-7 -5,-6 2,-7 h -3 v -4 h -11 l 5,-5 -2,-5 -6,-2 1,-2 5,3 1,-2 -9,-17 9,-6 -2,-9 4,-8 -2,-3 7,-22 -1,-6 4,-8 -6,-5 -7,-31 4,-3 -2,-8 5,-9 7,-15 v -1 l -1,-2 -8,7 h -5 l -9,-22 -7,-3 -3,7 -5,2 v 6 l 2,2 -3,4 -3,-4 -15,2 -3,7 -1,4 -16,6 -16,-4 -11,8 -1,8 -5,1 v 5 l -4,-2 -9,5 2,4 1,6 -16,26 -1,8 3,7 4,-3 1,3 h 8 l -2,2 3,7 h 3 l 6,4 -5,7 -3,-1 -4,9 6,8 6,-3 3,2 -3,12 2,3 3,-1 6,9 -1,2 4,7 -4,6 1,12 -12,3 2,5 -2,11 -7,7 8,1 5,-4 7,3 16,-9 8,-1 -5,-12 10,3 z"
         id="26100"
         inkscape:connector-curvature="0" />
      <path
         d="m 233,302 -10,3 -9,-3 -12,4 -13,-7 -7,-4 -2,-14 -6,-1 4,-5 -1,-7 -1,-4 -7,-3 5,-5 2,-4 -7,-7 13,1 3,-12 8,1 1,-3 -5,-8 -6,-2 -2,-7 -14,-3 2,-9 -6,-3 v -1 l -6,-5 -10,-3 -7,4 -1,7 -7,4 -19,-5 v 1 22 l -5,1 -4,-1 -4,6 -14,8 -1,-5 -6,-3 -8,-6 -5,-2 -6,3 -3,7 -5,31 5,5 -3,9 7,4 26,10 7,4 1,5 v 2 l 12,6 9,-3 3,11 2,5 10,-11 8,-5 9,3 9,-2 7,3 2,11 -6,7 6,3 7,3 7,7 v 5 l -5,2 v 10 l 6,4 3,3 8,-2 3,-8 5,1 22,2 -3,-14 h 5 v -3 l 2,-4 -3,-5 3,-1 -5,-8 h 5 l 2,-5 10,-6 -3,-10 z"
         id="26201"
         inkscape:connector-curvature="0" />
      <path
         d="m 283,76 1,-6 -2,4 z m 26,44 -1,-5 -2,6 3,1 z m -38,66 -2,1 v -3 l -3,4 -7,-1 5,-4 -3,-4 -7,2 -6,-4 1,4 -4,4 4,-1 -1,4 -9,6 -2,7 -4,-1 1,-10 3,-2 -3,-2 4,-1 5,-13 -2,-7 -4,-5 -2,1 -3,6 -8,-2 h -2 l -1,7 -2,8 -4,-1 -9,-11 -6,2 -3,-2 -7,8 -8,4 v 4 l -8,11 -11,4 v 1 l 6,3 -2,9 14,3 2,7 6,2 5,8 h 10 l 17,-1 10,9 13,-6 4,4 5,-6 6,2 3,-1 3,8 4,-2 7,-6 -2,-10 2,-8 7,-1 2,-3 3,3 5,-1 11,-13 v -1 l -5,-7 5,-12 h 3 l -1,-10 -11,-9 5,-14 12,-5 h -5 l -5,-4 v -3 h -3 l -3,1 -1,-4 2,-7 -1,-2 5,-2 v -4 l -3,1 -3,1 -2,4 -5,1 v 3 l -3,3 -1,7 -6,-2 -5,5 -2,-3 1,3 -5,2 -4,-2 -5,5 -9,5 -2,-2 -1,-3 -2,6 v 9 l 5,2 -1,3 -1,7 6,1 7,-2 3,2 4,-8 h 3 l -2,6 5,6 -3,3 z m 41,-44 z m -68,36 5,-2 -4,-1 z"
         id="26202"
         inkscape:connector-curvature="0" />
      <path
         d="m 317,262 3,-4 -2,-6 15,-5 v -4 l -3,-5 2,-4 -3,-5 1,-10 -7,-3 -4,3 -3,-4 2,-3 -6,-4 -1,-5 -7,-3 -11,13 -5,1 -3,-3 -2,3 -7,1 -2,8 2,10 -7,6 -4,2 -3,-8 -3,1 -6,-2 -5,6 -4,-4 -13,6 -10,-9 -17,1 h -10 l -1,3 -8,-1 -3,12 -13,-1 7,7 -2,4 -5,5 7,3 1,4 1,7 -4,5 6,1 2,14 7,4 13,7 12,-4 9,3 10,-3 2,-1 6,1 8,-10 8,-2 6,-6 2,-6 14,-8 6,-8 9,-1 3,-2 z"
         id="26203"
         inkscape:connector-curvature="0" />
      <path
         d="m 446,526 23,5 v -2 l 17,-16 -2,-6 8,-17 -1,-8 -7,-2 -2,-3 h -4 l -1,3 v 12 l -8,-3 v 5 h -6 l -3,-5 -6,1 v -2 l -3,12 -14,5 3,8 h -3 v 4 h 3 v 6 h -3 v 4 z"
         id="26204"
         inkscape:connector-curvature="0" />
      <path
         d="m 176,141 1,-4 11,-17 13,-13 4,-16 7,-10 h 3 l -2,-4 3,-10 -4,-2 -13,6 -11,-2 -7,8 3,6 -9,-2 -3,-2 -1,9 h -6 l -2,6 v 8 l 6,3 5,5 -1,5 -5,13 2,5 -7,10 -6,-2 -3,3 -1,4 5,6 3,3 h 5 v 7 l -4,4 -3,1 -6,15 -7,4 1,3 10,3 6,5 11,-4 8,-11 v -4 l 8,-4 7,-8 3,2 6,-2 9,11 4,1 2,-8 1,-7 -8,-5 -2,-5 -11,-1 -2,-11 5,-3 2,5 8,-4 -1,-4 -6,-1 -4,-8 4,-5 -1,-5 -3,6 -5,5 -4,-3 1,5 -4,5 -8,5 3,6 -4,6 -6,-5 z"
         id="26205"
         inkscape:connector-curvature="0" />
      <path
         d="m 381,442 1,-2 -6,-9 -3,1 -2,-3 3,-12 -3,-2 -6,3 -6,-8 4,-9 -4,-2 h -12 l -6,7 3,8 -3,5 -5,-3 v 4 l -6,2 -10,-4 v -3 l -13,-2 -3,10 -17,17 -3,-2 -13,2 -7,-4 -2,6 2,6 9,1 3,-2 5,5 8,-3 9,4 17,7 -5,4 3,8 -4,1 3,4 -3,4 2,2 7,3 2,-3 4,2 5,8 6,2 2,6 14,-1 4,-3 v -8 h -6 l -2,2 v -5 l -2,5 -1,-3 3,-9 7,-1 -3,-8 5,-3 4,5 10,-2 12,-3 -1,-12 4,-6 z"
         id="26206"
         inkscape:connector-curvature="0" />
      <path
         d="m 477,551 v -6 l -6,-7 v -6 l -2,-1 -23,-5 -9,1 h -5 l 2,11 4,8 9,2 4,5 17,-2 z"
         id="26207"
         inkscape:connector-curvature="0" />
      <path
         d="m 416,493 2,-7 -6,-12 -10,-3 5,12 3,10 z"
         id="26208"
         inkscape:connector-curvature="0" />
      <path
         d="m 412,505 4,-5 v -7 h -6 l -3,-10 -8,1 -16,9 5,6 -2,5 8,3 5,-6 6,3 z"
         id="26209"
         inkscape:connector-curvature="0" />
      <path
         d="m 415,541 3,6 7,-12 9,3 -2,-11 -8,-4 -7,-4 -6,-9 -9,6 -2,4 7,11 -2,3 2,4 5,-1 z m 9,11 -1,-2 h -3 v 1 z"
         id="26210"
         inkscape:connector-curvature="0" />
      <path
         d="m 449,573 7,-2 v -12 l -5,-6 -4,-5 -9,-2 -4,-8 -9,-3 -7,12 2,3 h 3 l 1,2 7,12 -4,8 -4,5 3,15 12,-7 -4,-3 3,-6 h 10 z"
         id="26211"
         inkscape:connector-curvature="0" />
      <path
         d="m 44,91 -6,1 -1,-6 -1,-2 -5,1 -1,7 2,8 1,6 -3,12 -6,6 6,4 10,12 12,8 1,9 4,10 10,-1 h 5 l 6,-6 7,-3 13,-4 h 9 l 8,3 13,-4 5,-5 h 6 l 6,1 14,-22 6,-3 3,-8 h 5 l 1,-5 -5,-5 -6,-3 v -8 l 2,-6 h 6 l 1,-9 3,2 9,2 -3,-6 7,-8 v -3 l -9,-2 -2,-6 3,-14 11,-5 6,-15 -2,-2 -4,-4 -2,6 -11,2 -7,2 -12,5 -3,1 -2,-4 -2,3 -7,4 -9,2 -2,-1 -5,4 2,3 -3,4 -7,5 -2,4 -10,4 -3,-1 -3,7 -4,-1 -12,1 -3,-2 -3,6 -5,3 -1,8 -10,5 -10,4 -9,-1 v 4 l 8,-1 4,5 -11,11 2,5 -9,-4 3,-1 5,-10 -4,-2 -4,4 6,-10 z"
         id="26212"
         inkscape:connector-curvature="0" />
      <path
         d="m 283,391 -1,4 h -9 l -5,4 6,5 -2,4 -14,15 1,5 5,8 7,4 13,-2 3,2 17,-17 3,-10 13,2 v 3 l 10,4 6,-2 v -4 l 5,3 3,-5 -3,-8 6,-7 h 12 l 4,2 3,1 5,-7 -6,-4 h -3 l -3,-7 2,-2 h -8 l -1,-3 -4,3 -3,-7 1,-8 16,-26 -1,-6 -2,-4 9,-5 4,2 v -5 l 5,-1 1,-8 11,-8 16,4 16,-6 1,-4 3,-7 15,-2 3,4 3,-4 -2,-2 v -6 l 5,-2 3,-7 -6,-11 -8,-3 2,-6 -4,2 -9,-3 -4,5 -6,-3 -8,6 -27,-12 -2,1 -10,-4 -2,2 -2,-2 -8,2 -4,-4 -13,-1 h -8 v 4 l -15,5 2,6 -3,4 2,10 -9,6 -4,6 2,4 -8,7 -2,13 4,6 -5,2 -2,6 3,11 -5,13 8,4 -1,3 2,7 -7,8 1,7 -5,4 2,4 -4,4 -4,-1 -2,5 z"
         id="26213"
         inkscape:connector-curvature="0" />
      <path
         d="m 456,571 2,21 -9,2 -5,4 7,1 2,2 -7,3 v 4 h 9 l 6,5 1,-1 23,5 6,-4 6,3 2,-6 v -2 l 13,-18 h -3 l -2,-6 -6,1 1,-4 -1,-5 -3,6 -5,-3 -6,-7 2,-4 -4,-2 1,-3 h -1 z m 49,18 4,2 -2,4 1,-5 -3,1 1,3 -3,-4 2,-5 4,4 z m -27,-24 7,2 -2,2 z"
         id="26214"
         inkscape:connector-curvature="0" />
      <path
         d="m 411,510 1,-5 -7,-1 -6,-3 -5,6 8,9 z"
         id="26303"
         inkscape:connector-curvature="0" />
      <path
         d="m 437,523 h 3 v -6 h -3 v -4 h 3 l -3,-8 -3,2 -4,-4 -10,6 -3,1 2,3 v 2 l 1,1 3,2 1,3 v 2 l 8,4 h 5 z m 32,8 2,1 -2,-3 z"
         id="26322"
         inkscape:connector-curvature="0" />
      <path
         d="m 486,563 -1,-5 3,2 -1,5 2,-5 2,2 -5,-4 -3,1 v -2 -4 l -6,-2 h -9 l -17,2 5,6 v 12 l 29,-8 z m -8,2 5,4 2,-2 z"
         id="26343"
         inkscape:connector-curvature="0" />
      <path
         d="m 520,537 2,-1 -2,-8 1,-7 -1,-9 -13,6 -2,5 -5,2 -6,-2 1,-5 -9,-5 -17,16 2,3 v 6 l 6,7 v 6 l 6,2 v 4 l 5,-1 8,-3 -1,-3 5,2 7,-6 h 5 z"
         id="26344"
         inkscape:connector-curvature="0" />
      <path
         d="m 505,589 h 4 l -4,-4 -2,5 3,4 -1,-3 3,-1 -1,5 2,-4 z m 2,-5 2,6 h 3 l 3,-1 -2,9 8,2 1,-3 5,-3 1,4 h 5 l 4,-22 -5,-1 1,-4 -1,-4 -7,-1 -1,4 -4,10 -7,-1 -2,6 z"
         id="26364"
         inkscape:connector-curvature="0" />
      <path
         d="m 525,566 1,-6 h 7 l 12,-10 15,4 -1,-2 -4,-4 -5,2 -1,-9 -2,-2 -14,5 1,-5 -5,-5 -7,2 -2,1 -8,9 h -5 l -7,6 -5,-2 1,3 -8,3 -5,1 v 2 l 3,-1 5,4 -2,-2 -2,5 1,-5 -3,-2 1,5 -1,3 4,2 -2,4 6,7 5,3 3,-6 1,5 -1,4 6,-1 4,1 2,-6 7,1 4,-10 z"
         id="26365"
         inkscape:connector-curvature="0" />
      <path
         d="m 456,571 -7,2 -2,3 h -10 l -3,6 4,3 -12,7 v 1 l 10,8 -1,5 11,2 v -4 l 7,-3 -2,-2 -7,-1 5,-4 9,-2 z"
         id="26366"
         inkscape:connector-curvature="0" />
      <path
         d="m 554,560 6,-6 -15,-4 -12,10 h -7 l -1,6 7,1 1,4 -1,4 5,1 -4,22 7,3 1,11 3,2 5,-3 5,5 7,1 8,-18 h 4 l -8,-6 v -4 l -5,-1 3,-11 -7,-5 1,-3 -5,-2 z"
         id="26367"
         inkscape:connector-curvature="0" />
      <path
         d="m 267,385 1,14 5,-4 h 9 l 1,-4 2,-5 4,1 4,-4 -2,-4 5,-4 -1,-7 7,-8 -2,-7 1,-3 -8,-4 5,-13 -3,-11 2,-6 5,-2 -4,-6 2,-13 8,-7 -2,-4 4,-6 9,-6 -2,-10 -20,-3 -3,2 -9,1 -6,8 -14,8 -2,6 -6,6 -8,2 -8,10 -6,-1 3,10 -10,6 -2,5 h -5 l 5,8 -3,1 3,5 -2,4 v 3 h -5 l 3,14 1,7 -6,5 v 1 l 7,4 18,-4 h 3 l 1,8 21,4 z"
         id="26407"
         inkscape:connector-curvature="0" />
      <path
         d="m 230,64 -9,-4 v -4 l 1,-7 -4,-3 -3,-1 v -6 h -3 l -7,-5 2,-4 -4,1 -4,-6 -2,-1 -6,15 -11,5 -3,14 2,6 9,2 v 3 l 11,2 13,-6 4,2 -3,10 2,4 1,-3 1,2 7,-3 -3,5 3,2 v 1 l 4,-2 -1,-7 z"
         id="26463"
         inkscape:connector-curvature="0" />
      <path
         d="m 147,191 -1,-3 7,-4 6,-15 3,-1 4,-4 v -7 h -5 l -3,-3 -5,-6 1,-4 3,-3 6,2 7,-10 -2,-5 5,-13 h -5 l -3,8 -6,3 -14,22 -6,-1 h -6 l -5,5 -13,4 -8,-3 3,12 1,4 -6,6 4,2 -3,10 4,6 1,6 2,2 19,5 7,-4 1,-7 z"
         id="26465"
         inkscape:connector-curvature="0" />
    </defs>
    <rect
       x="-10"
       y="-10"
       width="620"
       height="660"
       id="rect42"
       style="fill:#ffffff" />
    <rect
       x="0"
       y="0"
       width="600"
       height="640"
       id="rect44"
       style="fill:#c6ecff;fill-opacity:1" />
    <g
       id="g46"
       style="stroke:#000000;stroke-width:0.2;stroke-linejoin:round">
      <a
         id="a48">
        <use
           xlink:href="#18000"
           id="use50"
           style="fill:#f6e1b9;fill-opacity:1"
           x="0"
           y="0"
           width="600"
           height="712" />
      </a>
      <a
         id="a52">
        <use
           xlink:href="#24000"
           id="use54"
           style="fill:#f6e1b9;fill-opacity:1"
           x="0"
           y="0"
           width="600"
           height="712" />
      </a>
      <a
         id="a56">
        <use
           xlink:href="#25000"
           id="use58"
           style="fill:#f6e1b9;fill-opacity:1"
           x="0"
           y="0"
           width="600"
           height="712" />
      </a>
      <a
         id="a60">
        <use
           xlink:href="#27000"
           id="use62"
           style="fill:#f6e1b9;fill-opacity:1"
           x="0"
           y="0"
           width="600"
           height="712" />
      </a>
      <a
         id="a64">
        <use
           xlink:href="#28000"
           id="use66"
           style="fill:#f6e1b9;fill-opacity:1"
           x="0"
           y="0"
           width="600"
           height="712" />
      </a>
      <a
         id="a68">
        <use
           xlink:href="#29000"
           id="use70"
           style="fill:#f6e1b9;fill-opacity:1"
           x="0"
           y="0"
           width="600"
           height="712" />
      </a>
      <a
         id="a72">
        <use
           xlink:href="#26100"
           id="use74"
           style="fill:#fefee4;fill-opacity:1"
           x="0"
           y="0"
           width="600"
           height="712" />
      </a>
      <a
         id="a76">
        <use
           xlink:href="#26201"
           id="use78"
           style="fill:#fefee4;fill-opacity:1"
           x="0"
           y="0"
           width="600"
           height="712" />
      </a>
      <a
         id="a80">
        <use
           xlink:href="#26202"
           id="use82"
           style="fill:#fefee4;fill-opacity:1"
           x="0"
           y="0"
           width="600"
           height="712" />
      </a>
      <a
         id="a84">
        <use
           xlink:href="#26203"
           id="use86"
           style="fill:#fefee4;fill-opacity:1"
           x="0"
           y="0"
           width="600"
           height="712" />
      </a>
      <a
         id="a88">
        <use
           xlink:href="#26204"
           id="use90"
           style="fill:#fefee4;fill-opacity:1"
           x="0"
           y="0"
           width="600"
           height="712" />
      </a>
      <a
         id="a92">
        <use
           xlink:href="#26205"
           id="use94"
           style="fill:#fefee4;fill-opacity:1"
           x="0"
           y="0"
           width="600"
           height="712" />
      </a>
      <a
         id="a96">
        <use
           xlink:href="#26206"
           id="use98"
           style="fill:#fefee4;fill-opacity:1"
           x="0"
           y="0"
           width="600"
           height="712" />
      </a>
      <a
         id="a100">
        <use
           xlink:href="#26207"
           id="use102"
           style="fill:#fefee4;fill-opacity:1"
           x="0"
           y="0"
           width="600"
           height="712" />
      </a>
      <a
         id="a104">
        <use
           xlink:href="#26208"
           id="use106"
           style="fill:#fefee4;fill-opacity:1"
           x="0"
           y="0"
           width="600"
           height="712" />
      </a>
      <a
         id="a108">
        <use
           xlink:href="#26209"
           id="use110"
           style="fill:#fefee4;fill-opacity:1"
           x="0"
           y="0"
           width="600"
           height="712" />
      </a>
      <a
         id="a112">
        <use
           xlink:href="#26210"
           id="use114"
           style="fill:#fefee4;fill-opacity:1"
           x="0"
           y="0"
           width="600"
           height="712" />
      </a>
      <a
         id="a116">
        <use
           xlink:href="#26211"
           id="use118"
           style="fill:#fefee4;fill-opacity:1"
           x="0"
           y="0"
           width="600"
           height="712" />
      </a>
      <a
         id="a120">
        <use
           xlink:href="#26212"
           id="use122"
           style="fill:#fefee4;fill-opacity:1"
           x="0"
           y="0"
           width="600"
           height="712" />
      </a>
      <a
         id="a124">
        <use
           xlink:href="#26213"
           id="use126"
           style="fill:#fefee4;fill-opacity:1"
           x="0"
           y="0"
           width="600"
           height="712" />
      </a>
      <a
         id="a128">
        <use
           xlink:href="#26214"
           id="use130"
           style="fill:#fefee4;fill-opacity:1"
           x="0"
           y="0"
           width="600"
           height="712" />
      </a>
      <a
         id="a132">
        <use
           xlink:href="#26303"
           id="use134"
           style="fill:#fefee4;fill-opacity:1"
           x="0"
           y="0"
           width="600"
           height="712" />
      </a>
      <a
         id="a136">
        <use
           xlink:href="#26322"
           id="use138"
           style="fill:#fefee4;fill-opacity:1"
           x="0"
           y="0"
           width="600"
           height="712" />
      </a>
      <a
         id="a140">
        <use
           xlink:href="#26343"
           id="use142"
           style="fill:#fefee4;fill-opacity:1"
           x="0"
           y="0"
           width="600"
           height="712" />
      </a>
      <a
         id="a144">
        <use
           xlink:href="#26344"
           id="use146"
           style="fill:#fefee4;fill-opacity:1"
           x="0"
           y="0"
           width="600"
           height="712" />
      </a>
      <a
         id="a148">
        <use
           xlink:href="#26364"
           id="use150"
           style="fill:#fefee4;fill-opacity:1"
           x="0"
           y="0"
           width="600"
           height="712" />
      </a>
      <a
         id="a152">
        <use
           xlink:href="#26365"
           id="use154"
           style="fill:#fefee4;fill-opacity:1"
           x="0"
           y="0"
           width="600"
           height="712" />
      </a>
      <a
         id="a156">
        <use
           xlink:href="#26366"
           id="use158"
           style="fill:#fefee4;fill-opacity:1"
           x="0"
           y="0"
           width="600"
           height="712" />
      </a>
      <a
         id="a160">
        <use
           xlink:href="#26367"
           id="use162"
           style="fill:#fefee4;fill-opacity:1"
           x="0"
           y="0"
           width="600"
           height="712" />
      </a>
      <a
         id="a164">
        <use
           xlink:href="#26407"
           id="use166"
           style="fill:#fefee4;fill-opacity:1"
           x="0"
           y="0"
           width="600"
           height="712" />
      </a>
      <a
         id="a168">
        <use
           xlink:href="#26463"
           id="use170"
           style="fill:#fefee4;fill-opacity:1"
           x="0"
           y="0"
           width="600"
           height="712" />
      </a>
      <a
         id="a172">
        <use
           xlink:href="#26465"
           id="use174"
           style="fill:#fefee4;fill-opacity:1"
           x="0"
           y="0"
           width="600"
           height="712" />
      </a>
    </g>
    <path
       d="m 495,111 2,4 -4,3 -1,-6 z m 8,-2 2,9 -1,4 h -3 l -1,-11 z m -7,17 -1,5 -6,1 -6,-7 2,-2 4,1 2,-7 6,6 z m 0,0 h 4 l -2,8 -2,-2 z m -7,6 2,2 h 6 l 3,5 -12,2 -3,-7 z m 115,197 -6,2 -6,9 -7,-1 3,6 -8,1 -6,6 -1,10 3,5 -4,6 -14,-3 -8,7 -9,-5 -8,13 -12,-2 -4,17 6,11 -5,2 2,-2 h -5 l 4,7 -4,-1 -12,16 6,5 -2,6 3,4 -6,6 -1,10 -6,-14 -8,-1 -6,-5 4,-6 -1,-9 6,-12 h 3 l 3,-13 5,-2 2,-4 -2,-2 h 5 l 7,-13 -4,-8 6,-9 -6,-5 -2,-14 4,-8 4,-1 1,-4 11,-9 -1,-6 7,-10 19,-12 -1,-8 3,-4 10,-1 7,-8 8,-1 -5,-22 -14,-12 v -11 l 5,-5 -3,-14 2,-4 14,-14 5,9 6,-2 6,-17 3,-3 4,2 z m 0,-143 h -2 v 9 l 2,3 z m -28,149 h -5 l -2,7 11,-5 v -2 z m -71,114 v 2 h 3 v -5 z m 99,-81 -3,-1 -9,-3 v -3 l 9,-2 -6,2 7,-1 2,5 z m -437,-233 13,-5 -5,12 -7,-3 -5,6 -2,-2 3,-1 -2,-6 z M 111,68 v 3 l -4,-4 z m -69,29 3,-3 h 8 l 5,5 -10,10 2,5 -10,-3 10,-12 -6,-1 -4,4 z m 281,203 h 4 l 2,-3 v 3 l -7,1 -1,3 -4,-2 -2,8 v -3 l -13,-4 v 4 h -3 l 6,-5 9,5 v -4 z m 11,78 -2,-4 -7,-3 4,-2 6,3 3,7 v -3 l 5,2 -6,4 -4,-8 z m -56,121 2,5 2,-11 h 4 l -3,5 v 8 l -6,1 2,-6 -4,-6 z m -156,81 14,1 -16,2 z m 94,-75 h 6 l -5,11 -5,1 v 6 -8 l 4,-1 3,-7 z m -7,48 -3,-1 v 3 l -1,-4 z m -193,12 2,2 4,-1 1,3 h -5 z m 167,-86 2,10 8,-2 2,3 H 184 z M 10,348 l 5,-5 v 3 l 6,3 -1,2 z m 111,143 -1,3 -1,-2 2,-3 z m -74,-58 -3,-8 5,5 1,6 -2,1 z m 513,203 3,6 -3,-4 -4,2 z"
       id="path176"
       inkscape:connector-curvature="0"
       style="fill:#c6ecff;stroke:#0978ab;stroke-width:0.20000000000000001;stroke-linejoin:round;fill-opacity:1;stroke-opacity:1" />
  </g>
</svg>
